<?xml version="1.0" standalone="no"?>
<!DOCTYPE svg PUBLIC "-//W3C//DTD SVG 20010904//EN"
 "http://www.w3.org/TR/2001/REC-SVG-20010904/DTD/svg10.dtd">
<svg version="1.0" xmlns="http://www.w3.org/2000/svg"
 width="1280.000000pt" height="1280.000000pt" viewBox="0 0 1280.000000 1280.000000"
 preserveAspectRatio="xMidYMid meet">
<metadata>
Created by potrace 1.16, written by Peter Selinger 2001-2019
</metadata>
<g transform="translate(0.000000,1280.000000) scale(0.100000,-0.100000)"
fill="#000000" stroke="none">
<path d="M7332 10654 c-239 -64 -402 -274 -402 -516 0 -92 16 -159 57 -248 35
-74 55 -95 1471 -1512 l1437 -1438 -4170 0 c-3588 0 -4179 -2 -4238 -15 -207
-44 -368 -205 -412 -412 -18 -85 -18 -140 -1 -225 46 -214 215 -378 430 -417
43 -8 1264 -11 4225 -11 l4166 0 -1437 -1437 c-1416 -1418 -1436 -1439 -1471
-1513 -41 -89 -57 -156 -57 -248 0 -132 50 -258 140 -356 99 -107 214 -163
356 -173 105 -7 188 8 284 54 74 35 109 70 1988 1947 1096 1095 1928 1934
1949 1965 62 93 87 179 87 301 0 122 -25 208 -87 301 -21 31 -854 871 -1949
1965 -1893 1892 -1914 1912 -1988 1947 -41 19 -99 40 -128 46 -72 15 -186 13
-250 -5z"/>
</g>
</svg>
